<?xml version="1.0" standalone="no"?><!DOCTYPE svg PUBLIC "-//W3C//DTD SVG 1.1//EN" "http://www.w3.org/Graphics/SVG/1.1/DTD/svg11.dtd"><svg t="1596006480754" class="icon" viewBox="0 0 1024 1024" version="1.1" xmlns="http://www.w3.org/2000/svg" p-id="2475" xmlns:xlink="http://www.w3.org/1999/xlink" width="32" height="32"><defs><style type="text/css"></style></defs><path d="M527.8 499.9h-42.7V96h42.7v403.9zM367.2 143.2l15.3 39.8c-139.3 53.3-233.1 187.5-233.1 339.2 0 200.5 162.4 363.1 362.7 363.1s362.7-162.5 362.7-363.1c0-127.4-66.1-243.4-172.4-309.1-19.8-12.2-40.7-22.5-62.5-30.8l15.1-39.9c24.4 9.2 47.8 20.7 69.9 34.4C843.5 250.3 917.3 380 917.3 522.3c0 224-181.4 405.7-405.3 405.7S106.7 746.3 106.7 522.3c0-169.6 104.9-319.5 260.5-379.1z" p-id="2476" fill="#bfbfbf"></path></svg>